<svg width="24" height="24" viewBox="0 0 24 24" fill="none" xmlns="http://www.w3.org/2000/svg">
<path d="M18.5077 16.849C18.4777 16.859 18.4536 16.8649 18.4244 16.874C19.0961 17.2016 19.6695 17.5451 20.0178 17.836C20.467 18.2119 20.4345 18.918 19.9478 19.2448C19.2878 19.6874 17.8985 20.1934 16.5868 20.2818C16.711 20.441 16.8201 20.5952 16.8976 20.7361C17.1768 21.2462 16.8476 21.8789 16.2693 21.9389C15.2334 22.0456 13.3874 22.0682 12.0032 21.5313C10.6264 22.0673 8.80212 22.0456 7.76623 21.9389C7.18786 21.8789 6.85867 21.2462 7.13785 20.7361C7.21453 20.5952 7.32203 20.4418 7.44371 20.2834C6.12446 20.2001 4.71937 19.6899 4.05516 19.2448C3.56846 18.9188 3.53513 18.2119 3.98516 17.836C4.33351 17.5451 4.90688 17.2016 5.57859 16.874C5.54859 16.8649 5.52525 16.8582 5.49525 16.849C4.35768 16.4839 2.85259 15.577 2.22255 14.8659C1.79919 14.3882 2.01087 13.6363 2.6159 13.4346C3.03426 13.2946 3.77764 13.1545 4.52519 13.0587C3.70097 12.9378 2.77591 12.5652 2.37422 11.5607C1.86336 10.2811 1.9767 8.72981 2.12671 7.77284C2.20088 7.29936 2.73174 7.05261 3.1426 7.29852C3.53596 7.5336 4.02683 7.88037 4.52186 8.34969C3.94432 7.46274 3.36095 6.159 3.92349 5.02614C4.44018 3.98665 5.41275 2.67707 6.20113 2.16275C6.80533 1.76762 7.61955 2.1294 7.71622 2.84463C7.8879 4.11336 7.87957 6.5733 6.81617 8.65061C6.41447 11.7741 7.07535 14.5675 8.73462 16.5964C9.78635 17.881 11.0264 18.6104 12.0273 18.8772C13.0841 18.6112 14.3675 17.8852 15.4125 16.6081C16.5893 15.1693 17.8052 12.6035 17.1018 8.48389C16.1209 6.44325 16.1159 4.07918 16.2834 2.84463C16.3801 2.1294 17.1943 1.76762 17.7985 2.16275C18.5869 2.67707 19.5595 3.98665 20.0762 5.02614C20.6387 6.159 20.0562 7.46274 19.4778 8.34969C19.9728 7.88037 20.4637 7.53443 20.857 7.29852C21.2679 7.05261 21.7988 7.29852 21.8729 7.77284C22.023 8.72981 22.1371 10.2803 21.6263 11.5599C21.2254 12.5643 20.3003 12.937 19.4753 13.0578C20.222 13.1537 20.9654 13.2946 21.3846 13.4338C21.9896 13.6355 22.2013 14.3874 21.7779 14.8651C21.1487 15.5761 19.6428 16.4831 18.5052 16.8482L18.5077 16.849ZM12.4174 13.6705H10.3339C9.87302 13.6705 9.5005 14.0431 9.5005 14.5041C9.5005 14.9651 9.87302 15.3377 10.3339 15.3377H12.4174C13.7958 15.3377 14.9175 14.2157 14.9175 12.8369C14.9175 12.0775 14.5708 11.4048 14.035 10.9463C14.3258 10.5379 14.5008 10.041 14.5008 9.50255C14.5008 8.12378 13.3791 7.00176 12.0007 7.00176H10.3339C9.87302 7.00176 9.5005 7.37438 9.5005 7.83536C9.5005 8.29634 9.87302 8.66895 10.3339 8.66895H12.0007C12.4607 8.66895 12.834 9.0424 12.834 9.50255C12.834 9.96269 12.4607 10.3361 12.0007 10.3361H11.1673C10.7064 10.3361 10.3339 10.7088 10.3339 11.1697C10.3339 11.6307 10.7064 12.0033 11.1673 12.0033H12.4174C12.8774 12.0033 13.2507 12.3768 13.2507 12.8369C13.2507 13.2971 12.8774 13.6705 12.4174 13.6705Z" fill="url(#paint0_linear_5025_16674)"/>
<defs>
<linearGradient id="paint0_linear_5025_16674" x1="2" y1="2" x2="2" y2="22" gradientUnits="userSpaceOnUse">
<stop stop-color="#FD9C43"/>
<stop offset="1" stop-color="#F27E1D"/>
</linearGradient>
</defs>
</svg>
