<svg width="24" height="24" viewBox="0 0 24 24" fill="none" xmlns="http://www.w3.org/2000/svg">
<path d="M11.9992 15.3374C11.5391 15.3374 11.1658 14.9648 11.1658 14.5038V9.32446L10.9216 9.56872C10.5966 9.89467 10.0691 9.89467 9.74323 9.56872C9.41738 9.24277 9.41738 8.71591 9.74323 8.38997L10.7783 7.3546C11.1241 7.00947 11.6392 6.90777 12.09 7.0945C12.5417 7.28207 12.8325 7.71806 12.8325 8.20657V14.5046C12.8325 14.9656 12.4592 15.3374 11.9992 15.3374ZM21.7779 14.8656C22.2013 14.3879 21.9896 13.636 21.3846 13.4343C20.9662 13.2942 20.2229 13.1542 19.4753 13.0583C20.2995 12.9374 21.2246 12.5648 21.6263 11.5603C22.1371 10.2806 22.023 8.73009 21.8729 7.77308C21.7988 7.29958 21.2679 7.05282 20.8571 7.29874C20.4637 7.53383 19.9729 7.88062 19.4778 8.34995C20.0554 7.46297 20.6387 6.15917 20.0762 5.02627C19.5595 3.98673 18.587 2.6771 17.7986 2.16275C17.1944 1.76761 16.3802 2.12941 16.2835 2.84466C16.116 4.07927 16.121 6.44261 17.1019 8.48417C17.8053 12.6048 16.5894 15.1699 15.4127 16.6087C14.3676 17.8858 13.0842 18.6119 12.0275 18.8779C11.0266 18.6111 9.78657 17.8817 8.73485 16.597C7.07561 14.5688 6.41475 11.7753 6.81643 8.65089C7.88065 6.57349 7.88898 4.11345 7.71647 2.84466C7.6198 2.12941 6.8056 1.76761 6.20141 2.16275C5.41304 2.6771 4.44049 3.98673 3.9238 5.02627C3.36128 6.15917 3.9438 7.46297 4.52216 8.34995C4.02714 7.88062 3.53629 7.53466 3.14293 7.29874C2.73208 7.05282 2.20123 7.29874 2.12706 7.77308C1.97705 8.73009 1.86288 10.2806 2.37373 11.5603C2.77458 12.5648 3.69963 12.9374 4.52466 13.0583C3.77796 13.1542 3.0346 13.295 2.61541 13.4343C2.01038 13.636 1.79871 14.3879 2.22206 14.8656C2.85125 15.5767 4.35716 16.4837 5.49471 16.8488C5.52471 16.8588 5.54888 16.8646 5.57804 16.8738C4.90635 17.2014 4.33299 17.5449 3.98464 17.8358C3.53545 18.2118 3.56795 18.9179 4.05464 19.2447C4.71884 19.6898 6.1239 20.2 7.44313 20.2834C7.32146 20.4417 7.21395 20.5951 7.13728 20.736C6.8581 21.2462 7.18728 21.8789 7.76564 21.9389C8.80152 22.0457 10.6258 22.0682 12.0025 21.5313C13.3867 22.0673 15.2326 22.0457 16.2685 21.9389C16.8469 21.8789 17.1761 21.2462 16.8969 20.736C16.8194 20.5951 16.7102 20.4409 16.586 20.2817C17.8978 20.1933 19.287 19.6865 19.947 19.2447C20.4337 18.9187 20.467 18.2118 20.017 17.8358C19.6687 17.5449 19.0953 17.2014 18.4236 16.8738C18.4536 16.8646 18.477 16.858 18.507 16.8488C19.6445 16.4837 21.1496 15.5767 21.7796 14.8656H21.7779Z" fill="url(#paint0_linear_5018_13158)"/>
<defs>
<linearGradient id="paint0_linear_5018_13158" x1="2" y1="2" x2="2" y2="22" gradientUnits="userSpaceOnUse">
<stop stop-color="#FDE046"/>
<stop offset="1" stop-color="#FFBC00"/>
</linearGradient>
</defs>
</svg>
