<svg width="35" height="32" viewBox="0 0 35 32" fill="none" xmlns="http://www.w3.org/2000/svg">
<path d="M34.3132 9.4094L32.9195 0H2.08188L0.686844 9.4094C-1.5783 25.5427 17.5 32 17.5 32C17.5 32 36.5783 25.5427 34.3132 9.4094Z" fill="#242528"/>
<path d="M3.45979 10.2651C2.85356 15.6548 5.02457 20.4169 9.92002 24.4265C12.8542 26.8298 15.9908 28.2986 17.5 28.9263C19.0106 28.2986 22.1458 26.8298 25.08 24.4265C29.9754 20.4169 32.1464 15.6548 31.5402 10.2651H3.45979Z" fill="#9E62E9"/>
<path d="M16.9323 16.2364L16.6842 15.8193C16.3518 15.9454 15.9781 16.0157 15.5758 16.0501C15.5758 16.0501 14.7628 16.3123 14.2264 16.2951C14.2264 16.2951 15.4475 16.3696 16.3689 16.1174C16.3689 16.1174 15.3604 16.5473 14.2264 16.4972C14.2264 16.4972 15.3519 16.6362 16.5201 16.275C16.5201 16.275 15.573 16.6333 14.7671 16.6276C14.7671 16.6276 15.9581 16.7093 16.9338 16.2349L16.9323 16.2364Z" fill="white"/>
<path d="M17.5 14.9854V15.5428C17.5 15.5428 17.7639 15.656 17.9593 16.0429C17.9593 16.0429 17.9008 15.6001 17.6911 15.4697C17.6911 15.4697 17.8466 15.4783 17.9436 15.6388C17.9436 15.6388 17.8423 15.3565 17.6455 15.2218C17.6455 15.2218 17.751 15.2576 17.7967 15.3078C17.7967 15.3078 17.6626 15.0255 17.5014 14.9882L17.5 14.9854Z" fill="white"/>
<path d="M11.2381 12.314C11.2209 12.3326 11.2038 12.3527 11.1881 12.3713C10.4707 13.2154 9.89723 14.2514 9.47644 15.4581L11.2395 13.1322V12.314H11.2381Z" fill="#ADE962"/>
<path d="M8.93438 18.0721L9.99278 16.2163L8.428 18.3171C8.39662 18.4834 8.37237 18.6625 8.35811 18.8531L8.31104 19.6513L10.2681 16.9873L9.52206 17.6536L10.5805 15.9297L8.93438 18.0735V18.0721Z" fill="#ADE962"/>
<path d="M21.5411 16.4687C20.8107 16.579 19.8779 16.3512 19.8779 16.3512C21.0033 16.5375 22.2044 16.1377 22.2044 16.1377C20.0034 16.5819 18.2318 15.8281 18.2318 15.8281L18.1219 16.2165C18.6697 16.5246 19.7053 16.6106 20.0861 16.6321C19.788 16.5962 19.5583 16.4357 19.5583 16.4357C20.5911 16.6636 21.5411 16.4701 21.5411 16.4701V16.4687Z" fill="white"/>
<path d="M12.208 17.6938C13.1252 17.6823 14.0395 17.5577 14.9382 17.3699C14.0723 17.4846 13.1851 17.4359 12.3364 17.2266C12.1153 17.1722 11.8942 17.1063 11.666 17.0948C11.4377 17.0833 11.1967 17.1349 11.0269 17.2868C10.8558 17.4387 10.7673 17.7038 10.8786 17.9045C10.7473 17.9274 10.6275 18.0105 10.5605 18.1266C10.4934 18.2412 10.4778 18.3874 10.5205 18.5135C10.5419 18.5766 10.5762 18.6339 10.6247 18.6798C10.6446 18.6984 10.6675 18.7127 10.6903 18.727C11.6888 18.0893 12.8328 17.8973 13.0524 17.84C12.7672 17.8171 12.4847 17.7726 12.2094 17.6938H12.208Z" fill="#ADE962"/>
<path d="M23.8119 12.3713C23.7948 12.3512 23.7777 12.3326 23.762 12.314V13.1322L25.525 15.4581C25.1042 14.25 24.5308 13.2154 23.8133 12.3713H23.8119Z" fill="#ADE962"/>
<path d="M16.4459 15.1101C16.5528 15.0815 16.6898 14.888 16.801 14.7332C16.9793 14.4825 17.1819 14.1973 17.5 14.1973C17.8181 14.1973 18.0206 14.4825 18.1989 14.7332C18.3087 14.888 18.4471 15.0815 18.5541 15.1101C20.0262 15.4354 21.1915 15.3509 21.9104 15.2219C22.4468 15.1259 22.8205 14.9912 23.0031 14.9167V12.1437C20.2116 10.5459 17.5513 10.778 17.5242 10.7809H17.4771C17.45 10.778 14.7912 10.5459 11.9983 12.1437V14.9167C12.449 15.1001 14.0623 15.6389 16.4473 15.1116L16.4459 15.1101Z" fill="#B7D0ED"/>
<path d="M17.7296 10.7694V14.2517C17.9236 14.3463 18.0677 14.5483 18.1989 14.7332C18.3087 14.8879 18.4471 15.0814 18.5541 15.1101C18.8707 15.1803 19.1717 15.2304 19.4584 15.2663V10.8969C18.6539 10.7665 18.0334 10.7622 17.7296 10.7708V10.7694Z" fill="#E9F7FE"/>
<path d="M19.6952 10.937V15.2921C20.0147 15.3236 20.3128 15.3365 20.5896 15.335V11.1419C20.2757 11.056 19.9762 10.9886 19.6952 10.937Z" fill="#E9F7FE"/>
<path d="M20.7194 11.1792V15.335C20.8534 15.3322 20.9818 15.3264 21.1045 15.3193V11.2981C20.9747 11.2552 20.8463 11.215 20.7194 11.1792Z" fill="#E9F7FE"/>
<path d="M20.9491 17.4791C21.474 17.5565 21.9861 17.7156 22.4554 17.9477C22.5909 18.0151 22.7307 18.0896 22.8833 18.0982C23.0374 18.1068 23.21 18.0208 23.2314 17.8789C23.4211 17.9076 23.5566 18.0581 23.7064 18.1698C23.8561 18.2816 24.0943 18.3504 24.227 18.2229C24.3254 18.1283 24.3112 17.9692 24.2341 17.8589C24.1571 17.75 24.0316 17.6783 23.9118 17.611C24.0772 17.6998 24.2669 17.7485 24.4581 17.7528C24.1785 17.31 23.7862 16.9274 23.3241 16.6479C23.1073 17.0105 22.6993 17.2455 22.2714 17.3587C21.8435 17.472 21.3927 17.4777 20.9491 17.4791Z" fill="#ADE962"/>
<path d="M17.5 10.1662C17.7767 10.1418 20.0091 9.99708 22.5923 11.2195C22.113 10.8583 21.5924 10.5574 21.0332 10.3181C19.1889 9.53134 17.5428 9.69471 17.5271 9.69757H17.4729C17.4572 9.69614 15.8111 9.53134 13.9668 10.3181C13.4076 10.5574 12.887 10.8583 12.4077 11.2195C14.991 9.99708 17.2233 10.1418 17.5 10.1662Z" fill="#ADE962"/>
<path d="M16.6627 20.1157C16.9137 20.3865 17.3117 20.5127 17.6726 20.4338C17.6027 20.4811 17.5285 20.5184 17.4515 20.5485C17.48 20.5485 17.4971 20.5485 17.4971 20.5485H17.5C17.5085 20.5485 18.1462 20.5427 18.9749 20.1745C19.0619 20.0799 19.1147 19.948 19.0876 19.8219C19.0591 19.6901 18.9492 19.5869 18.8251 19.5324C18.701 19.478 18.5655 19.4651 18.4314 19.4522L17.8081 19.3934C17.6084 19.3748 17.4016 19.3562 17.209 19.4178C17.0179 19.4794 16.8424 19.6414 16.8324 19.8434C16.8224 20.0283 17.0007 20.2088 17.1733 20.1816C17.1905 20.1773 17.2061 20.1745 17.2218 20.1687C17.2061 20.1759 17.189 20.1788 17.1733 20.1816C17.0022 20.2232 16.8153 20.2002 16.6613 20.1143L16.6627 20.1157Z" fill="white"/>
<path d="M22.9004 20.1001C22.986 21.89 22.859 23.5179 22.521 24.9424C22.2229 26.2006 21.7593 27.3069 21.1445 28.2284C20.534 29.1455 19.8964 29.6958 19.457 30.0025C19.5769 29.9652 19.6596 29.9007 19.6667 29.895L19.6867 29.8807C22.1786 28.2642 22.4882 26.2851 22.491 26.2651L22.5039 26.1762L22.521 26.1605C22.6565 25.7334 23.451 23.0636 23.1885 20.2649C23.0987 20.2076 23.0017 20.1531 22.9004 20.1001Z" fill="#ADE962"/>
<path d="M13.4946 23.0923C13.767 23.3632 14.1493 23.5208 14.5316 23.5194C14.3219 23.581 14.0965 23.591 13.8812 23.5481C14.088 23.6312 14.2948 23.7129 14.5016 23.796C14.6757 23.8189 14.8511 23.8332 15.0251 23.8447C15.2334 23.859 15.4445 23.8734 15.6528 23.8447C15.8225 23.8218 15.988 23.7687 16.152 23.7172C16.0365 23.8805 15.8525 23.9765 15.6727 24.0654C15.8853 24.0525 16.0907 24.0339 16.2875 24.0124C16.6313 23.4721 16.9651 22.9204 17.1505 22.3085C17.0079 22.853 16.888 23.4019 16.7868 23.955C17.0449 23.9264 17.2874 23.902 17.5 23.902C17.7125 23.902 17.955 23.9249 18.2132 23.955C18.1119 23.4019 17.9907 22.8516 17.8494 22.3085C18.0349 22.9204 18.3687 23.4721 18.7124 24.0124C18.9093 24.0339 19.1147 24.0525 19.3272 24.0654C19.1489 23.9765 18.9635 23.8805 18.8479 23.7172C19.012 23.7687 19.176 23.8203 19.3472 23.8447C19.554 23.8734 19.7651 23.859 19.9748 23.8447C20.33 23.8189 20.6894 23.7902 21.0275 23.6799C21.3656 23.5695 21.6865 23.3646 21.8719 23.0594C21.8249 23.2643 21.705 23.4463 21.5553 23.5925C21.4383 23.7057 21.3042 23.8003 21.1644 23.8834C21.6622 23.7157 22.0103 23.3589 22.2 22.8215C22.2 22.8186 22.2014 22.8172 22.2029 22.8143C22.2571 22.5019 22.2656 22.1838 22.22 21.8685C22.2285 22.1494 22.1572 22.4317 22.0203 22.6768C22.0659 22.2884 22.113 21.8943 22.0673 21.506C22.0217 21.1176 21.9618 20.6318 21.5995 20.4885C21.24 20.3466 20.8392 20.3824 20.4555 20.4283C20.3457 20.4412 20.233 20.4555 20.1346 20.5086C20.0789 20.5386 20.029 20.5816 19.999 20.6375C19.9691 20.6934 19.962 20.7636 19.9891 20.821C20.0404 20.9313 20.1816 20.9557 20.3 20.98C20.7094 21.0646 21.0974 21.3283 21.3228 21.6808C21.0546 21.4744 20.7137 21.3641 20.3756 21.3755C20.3057 21.3784 20.2201 21.397 20.1987 21.4644C20.1831 21.5146 20.2144 21.5704 20.2572 21.5991C20.3 21.6292 20.3542 21.6392 20.4041 21.6507C20.6723 21.7109 20.9276 21.8212 21.1559 21.9746C20.9419 21.9531 20.7294 21.9488 20.5154 21.9703C20.1759 22.2841 19.661 22.3959 19.2359 22.211C19.1632 22.1795 19.0918 22.1394 19.0134 22.125C18.9349 22.1107 18.8451 22.1279 18.7966 22.191C18.7695 22.2268 18.7652 22.2755 18.7937 22.3085C18.8223 22.3429 18.8679 22.3558 18.9107 22.3687C19.2816 22.4718 19.6738 22.5492 20.0475 22.4575C19.835 22.5306 19.6168 22.5865 19.3928 22.5893C19.1689 22.5922 18.9421 22.5463 18.7452 22.4403C18.6953 22.4131 18.6482 22.383 18.5955 22.3629C18.5427 22.3429 18.4842 22.3328 18.4314 22.35C18.3558 22.3744 18.3016 22.4532 18.3059 22.5335C18.2759 22.3901 18.2788 22.2296 18.3558 22.105C18.4328 21.9803 18.5598 21.8871 18.7024 21.8513C18.6482 21.8728 18.5912 21.9072 18.5555 21.9531C18.5199 22.0004 18.5127 22.072 18.5512 22.1136C18.5897 22.1551 18.6611 22.1537 18.7081 22.1222C18.7552 22.0906 18.7823 22.0348 18.798 21.9803C18.8137 21.9258 18.8194 21.8685 18.8365 21.8126C18.8836 21.6593 19.0177 21.536 19.1746 21.5045C19.2188 21.4959 19.2644 21.4931 19.3072 21.483C19.3515 21.473 19.3957 21.4544 19.4242 21.42C19.4527 21.3856 19.4613 21.3311 19.4356 21.2939C19.4042 21.2494 19.3386 21.2451 19.2844 21.2537C19.1917 21.2681 19.1018 21.301 19.0091 21.3168C18.9164 21.3326 18.8137 21.3254 18.7395 21.2681C18.6554 21.2021 18.5512 21.1592 18.4443 21.1721C18.3387 21.185 18.2403 21.2351 18.1404 21.2738C18.0235 21.3197 17.8994 21.3512 17.7753 21.3684C17.7111 21.377 17.6455 21.3798 17.5813 21.3684C17.5527 21.3741 17.5228 21.3798 17.4943 21.3884C17.2974 21.4415 17.1205 21.559 16.995 21.7209C17.0079 21.6235 16.9465 21.5275 16.8638 21.4759C16.7811 21.4243 16.6812 21.4085 16.5828 21.4028C16.4858 21.3985 16.3874 21.4028 16.2904 21.387C16.2233 21.3755 16.1577 21.3541 16.0964 21.324C16.0593 21.3268 16.0208 21.324 15.9837 21.3182C15.891 21.3025 15.8011 21.2695 15.7084 21.2552C15.6542 21.2466 15.5886 21.2509 15.5572 21.2953C15.5315 21.3326 15.5401 21.3856 15.5686 21.4214C15.5971 21.4558 15.6413 21.4744 15.6856 21.4845C15.7298 21.4945 15.7754 21.4974 15.8182 21.506C15.9751 21.5389 16.1092 21.6607 16.1563 21.8141C16.1734 21.8685 16.1791 21.9258 16.1948 21.9817C16.2105 22.0362 16.2376 22.0921 16.2847 22.1236C16.3317 22.1551 16.4031 22.1566 16.4416 22.115C16.4815 22.072 16.4729 22.0004 16.4373 21.9545C16.4016 21.9072 16.3446 21.8742 16.2904 21.8528C16.4316 21.8886 16.5585 21.9817 16.637 22.1064C16.714 22.2311 16.7169 22.3916 16.6869 22.5349C16.6926 22.4546 16.6384 22.3758 16.5614 22.3515C16.5072 22.3343 16.4487 22.3443 16.3973 22.3644C16.3446 22.3844 16.2975 22.4145 16.2476 22.4417C16.0507 22.5478 15.8239 22.5936 15.6 22.5908C15.376 22.5879 15.1578 22.532 14.9453 22.4589C15.319 22.5506 15.7112 22.4733 16.0821 22.3701C16.1249 22.3586 16.1705 22.3443 16.1991 22.3099C16.2276 22.2755 16.2233 22.2268 16.1962 22.1924C16.1477 22.1293 16.0579 22.1121 15.9794 22.1265C15.901 22.1408 15.8296 22.1795 15.7569 22.2124C15.3332 22.3973 14.8183 22.287 14.4774 21.9717C14.2634 21.9502 14.0509 21.9545 13.8369 21.976C14.0652 21.8227 14.3205 21.7123 14.5887 21.6521C14.64 21.6407 14.6928 21.6306 14.7356 21.6005C14.7784 21.5704 14.8097 21.516 14.7941 21.4658C14.7727 21.3985 14.6871 21.3798 14.6172 21.377C14.2791 21.3655 13.9382 21.4759 13.67 21.6822C13.8954 21.3297 14.2834 21.0646 14.6928 20.9815C14.8112 20.9571 14.9524 20.9327 15.0037 20.8224C15.0308 20.7651 15.0237 20.6948 14.9938 20.639C14.9852 20.6218 14.9738 20.606 14.9609 20.5917C14.4703 20.6203 13.9896 20.8138 13.6215 21.1391C13.7856 21.0875 13.951 21.0359 14.1151 20.9843C13.5588 21.1921 13.1822 21.8012 13.2421 22.3944C13.1508 22.2999 13.0866 22.1809 13.0538 22.0534C13.0538 22.4389 13.215 22.8215 13.4875 23.0923H13.4946Z" fill="white"/>
<path d="M15.7569 18.1412C16.5685 18.1856 17.2347 18.2573 17.2347 18.2573C15.1992 18.1942 13.5759 18.6112 13.5759 18.6112C14.8611 18.3447 16.6127 18.4249 16.6127 18.4249C15.0266 18.4479 13.7528 18.7947 13.1309 18.9996C13.1651 19.0512 13.2093 19.097 13.2607 19.1329C15.1521 18.637 17.2874 18.7115 17.5028 18.7216C17.8195 18.7087 22.317 18.5496 24.0458 20.2994C23.8375 20.03 23.5095 19.6703 23.1315 19.4969C23.1315 19.4969 23.9188 19.7562 24.478 20.3882C24.488 20.3839 24.4965 20.3782 24.5065 20.3725C24.3368 20.1245 23.9959 19.719 23.4681 19.4954C23.4681 19.4954 24.033 19.6187 24.6734 20.1045C24.6748 20.0815 24.6763 20.0586 24.6734 20.0343C24.6192 19.9726 24.555 19.9038 24.488 19.8322C21.802 18.0867 18.2503 17.9492 15.7583 18.1383L15.7569 18.1412Z" fill="#ADE962"/>
<path d="M26.2838 17.3974C25.6904 16.6593 24.4894 15.1704 24.4894 15.1704L25.883 17.2627L24.3539 15.4398L25.8659 17.8029L24.3539 15.9299L25.8316 18.1583L25.0115 17.3687L26.6875 19.6516L26.6404 18.8505C26.5976 18.2414 26.4436 17.7485 26.2824 17.3974H26.2838Z" fill="#ADE962"/>
<path d="M24.2028 21.732L24.2099 21.7349C24.1714 21.3451 24.0116 21.004 23.7278 20.7002C23.8276 22.5173 23.5366 24.2054 23.2885 25.263C24.2484 23.7985 24.2142 22.1261 24.2142 22.106L24.2028 21.732Z" fill="#ADE962"/>
<path d="M11.1553 22.4414C11.0869 22.6578 11.1011 22.8914 11.0583 23.115C11.0341 23.2382 10.9941 23.3586 10.9628 23.479C11.0926 24.0221 11.3194 24.6584 11.7131 25.2602C11.5362 24.5064 11.3379 23.4345 11.2752 22.2222C11.2224 22.2895 11.181 22.3655 11.1568 22.4414H11.1553Z" fill="#ADE962"/>
<path d="M13.8556 28.2283C13.2408 27.3068 12.7786 26.2005 12.4791 24.9423C12.181 23.6884 12.0483 22.2768 12.0783 20.7349C11.9413 20.8853 11.8343 21.0616 11.7602 21.2508C11.7288 23.6626 12.3593 25.7806 12.4791 26.159L12.4976 26.1762L12.5105 26.2664C12.5133 26.2851 12.8214 28.2641 15.3148 29.8806L15.3348 29.8949C15.3519 29.9078 15.4303 29.9666 15.543 30.001C15.1037 29.6943 14.4675 29.144 13.857 28.2283H13.8556Z" fill="#ADE962"/>
<path d="M20.5012 27.4501C20.5469 27.7411 20.4713 28.0477 20.2787 28.2699C20.8778 27.7454 21.2273 26.9514 21.1959 26.1547C21.3456 25.9497 21.4954 25.7362 21.5553 25.4897C21.6152 25.2432 21.5653 24.9523 21.3699 24.7933C21.2244 24.6758 21.0219 24.6471 20.8378 24.6772C20.6524 24.7073 20.4812 24.7875 20.3115 24.8664C20.3857 24.9222 20.4356 25.0097 20.447 25.1014C19.8707 24.8377 19.206 24.7746 18.5912 24.928C18.4415 24.7402 18.2546 24.5497 18.0392 24.4465C17.8395 24.425 17.6598 24.4106 17.5015 24.4106C17.4187 24.4106 17.3289 24.4149 17.2347 24.4221C16.6984 24.5411 16.5244 24.8277 16.5244 24.8277C14.1936 24.4479 14.4332 26.384 14.4332 26.384C14.6215 25.5743 14.9168 25.3464 14.9168 25.3464C14.9168 25.3464 14.195 26.5617 15.0794 27.946C15.9638 29.3303 17.1563 29.6699 17.1563 29.6699C16.841 29.6886 16.3118 29.4908 16.3118 29.4908C17.5471 30.3435 18.7981 29.4908 18.7981 29.4908C19.6154 29.0896 20.2516 28.33 20.5041 27.4501H20.5012Z" fill="#ADE962"/>
<path d="M27.1454 18.8174C27.0541 17.5219 26.5378 16.781 26.3794 16.5818C25.9344 14.7461 25.197 13.2141 24.1856 12.0304C23.364 11.0674 22.3627 10.3308 21.2087 9.8436C19.3544 9.05829 17.7339 9.17007 17.5 9.19156C17.2661 9.17007 15.6457 9.05829 13.7913 9.8436C12.6374 10.3323 11.636 11.0674 10.8144 12.0304C9.80307 13.2156 9.06562 14.7461 8.62057 16.5818C8.46224 16.781 7.94588 17.5219 7.85459 18.8202L7.72906 20.9612C7.68057 21.3625 7.84318 22.1592 8.80458 22.3728C9.45217 22.5161 9.97424 22.4759 10.2909 22.42C10.3337 23.1724 10.589 25.0526 12.0269 26.4297C12.1153 26.8697 12.6231 28.7355 15.0309 30.3018C15.2548 30.4738 15.7527 30.6816 16.2205 30.395C16.4302 30.4924 16.8396 30.6429 17.3745 30.6429C17.4159 30.6429 17.4586 30.6429 17.5014 30.64C17.5442 30.6414 17.587 30.6429 17.6284 30.6429C18.1619 30.6429 18.5727 30.4924 18.7824 30.395C19.2502 30.683 19.748 30.4752 19.972 30.3032C22.3798 28.7369 22.8876 26.8711 22.976 26.4311C24.4138 25.054 24.6692 23.1738 24.712 22.4215C25.0286 22.4774 25.5507 22.5189 26.1983 22.3742C27.1597 22.1607 27.3223 21.3639 27.2738 20.9626L27.1483 18.8188L27.1454 18.8174ZM23.762 12.3142C23.7791 12.3328 23.7962 12.3529 23.8119 12.3715C24.5294 13.2156 25.1028 14.2517 25.5236 15.4583L23.7605 13.1324V12.3142H23.762ZM23.3241 16.6477C23.7877 16.9272 24.1785 17.3084 24.4581 17.7526C24.2669 17.7497 24.0772 17.6996 23.9118 17.6107C24.033 17.6781 24.1571 17.7483 24.2341 17.8586C24.3111 17.9676 24.3254 18.1281 24.227 18.2226C24.0929 18.3516 23.8561 18.2814 23.7063 18.1696C23.5566 18.0578 23.4211 17.9074 23.2313 17.8787C23.21 18.0206 23.0374 18.1066 22.8833 18.098C22.7292 18.0894 22.5909 18.0148 22.4554 17.9475C21.9861 17.7153 21.474 17.5563 20.9491 17.4789C21.3941 17.4789 21.8449 17.4732 22.2714 17.3585C22.6993 17.2453 23.1073 17.0103 23.3241 16.6477ZM20.0875 16.6305C20.1788 16.6363 20.2345 16.6377 20.2345 16.6377C20.1845 16.6391 20.136 16.6377 20.0875 16.6305C19.7067 16.609 18.6711 16.523 18.1234 16.2149L18.2332 15.8266C18.2332 15.8266 20.0048 16.5804 22.2058 16.1361C22.2058 16.1361 21.0047 16.5359 19.8793 16.3496C19.8793 16.3496 20.8121 16.5775 21.5425 16.4672C21.5425 16.4672 20.5939 16.6606 19.5598 16.4328C19.5598 16.4328 19.7894 16.5933 20.0875 16.6291V16.6305ZM13.9668 10.3179C15.8111 9.53119 17.4572 9.69456 17.4729 9.69743H17.5271C17.5428 9.696 19.1889 9.53119 21.0332 10.3179C21.5924 10.5573 22.113 10.8582 22.5923 11.2193C20.0091 9.99694 17.7767 10.1417 17.5 10.166C17.2233 10.1417 14.9909 9.99694 12.4077 11.2193C12.887 10.8582 13.4076 10.5573 13.9668 10.3179ZM11.9983 12.1422C14.7898 10.5444 17.4501 10.7765 17.4772 10.7794H17.5243C17.5514 10.7765 20.2102 10.5444 23.0031 12.1422V14.9152C22.8205 14.9897 22.4454 15.1244 21.9105 15.2204C21.1916 15.3494 20.0262 15.4354 18.5541 15.1086C18.4472 15.08 18.3102 14.8865 18.199 14.7317C18.0207 14.4809 17.8181 14.1958 17.5 14.1958C17.1819 14.1958 16.9794 14.4809 16.8011 14.7317C16.6912 14.8865 16.5529 15.08 16.4459 15.1086C14.0609 15.636 12.4476 15.0972 11.9969 14.9137V12.1408L11.9983 12.1422ZM17.9422 15.6374C17.8452 15.4769 17.6897 15.4683 17.6897 15.4683C17.8994 15.5987 17.9579 16.0415 17.9579 16.0415C17.7625 15.656 17.4986 15.5414 17.4986 15.5414V14.9839C17.6598 15.0212 17.7939 15.3035 17.7939 15.3035C17.7482 15.2534 17.6427 15.2175 17.6427 15.2175C17.8395 15.3522 17.9408 15.6346 17.9408 15.6346L17.9422 15.6374ZM14.225 16.4987C15.359 16.5488 16.3674 16.1189 16.3674 16.1189C15.4474 16.3711 14.225 16.2966 14.225 16.2966C14.7627 16.3138 15.5743 16.0516 15.5743 16.0516C15.9766 16.0172 16.3503 15.947 16.6827 15.8208L16.9309 16.2379C15.9538 16.7122 14.7641 16.6305 14.7641 16.6305C15.5701 16.6363 16.5172 16.278 16.5172 16.278C15.349 16.6391 14.2235 16.5001 14.2235 16.5001L14.225 16.4987ZM11.1881 12.3715C11.2052 12.3514 11.2224 12.3328 11.238 12.3142V13.1324L9.475 15.4583C9.89579 14.2502 10.4692 13.2156 11.1867 12.3715H11.1881ZM10.2667 16.9859L8.30962 19.65L8.35669 18.8517C8.36953 18.6612 8.3952 18.4835 8.42658 18.3158L9.99136 16.2149L8.93296 18.0707L10.579 15.9269L9.52064 17.6509L10.2667 16.9845V16.9859ZM10.6247 18.6798C10.5762 18.6354 10.5405 18.5766 10.5206 18.5135C10.4778 18.3874 10.492 18.2413 10.5605 18.1266C10.6275 18.012 10.7474 17.9289 10.8786 17.9045C10.7673 17.7039 10.8572 17.4388 11.0269 17.2869C11.1981 17.135 11.4377 17.0834 11.666 17.0948C11.8942 17.1063 12.1153 17.1708 12.3364 17.2267C13.1851 17.4359 14.0723 17.4846 14.9382 17.37C14.0395 17.5577 13.1252 17.6824 12.208 17.6938C12.4833 17.7727 12.7657 17.8157 13.051 17.84C12.8314 17.8973 11.6874 18.0894 10.6889 18.7271C10.6661 18.7142 10.6432 18.6984 10.6233 18.6798H10.6247ZM14.1223 20.9856C13.9582 21.0371 13.7928 21.0887 13.6287 21.1403C13.9982 20.8136 14.4789 20.6201 14.9681 20.5929C14.981 20.6072 14.9924 20.623 15.0009 20.6402C15.0309 20.6961 15.038 20.7663 15.0109 20.8236C14.9596 20.934 14.8184 20.9583 14.7 20.9827C14.2906 21.0672 13.9026 21.3309 13.6772 21.6835C13.9454 21.4771 14.2863 21.3668 14.6244 21.3782C14.6943 21.3811 14.7798 21.3997 14.8012 21.4671C14.8169 21.5172 14.7855 21.5731 14.7427 21.6018C14.7 21.6319 14.6458 21.6419 14.5958 21.6534C14.3277 21.7135 14.0723 21.8239 13.8441 21.9772C14.0581 21.9557 14.2706 21.9514 14.4846 21.9729C14.8241 22.2868 15.339 22.3985 15.7641 22.2137C15.8368 22.1822 15.9081 22.142 15.9866 22.1277C16.065 22.1134 16.1549 22.1306 16.2034 22.1936C16.2305 22.2294 16.2348 22.2782 16.2063 22.3111C16.1777 22.3441 16.1321 22.3584 16.0893 22.3713C15.7184 22.4745 15.3262 22.5519 14.9524 22.4602C15.165 22.5333 15.3832 22.5891 15.6072 22.592C15.8311 22.5949 16.0579 22.549 16.2548 22.443C16.3047 22.4157 16.3517 22.3856 16.4045 22.3656C16.4573 22.3455 16.5158 22.3355 16.5686 22.3527C16.6442 22.3771 16.6984 22.4559 16.6941 22.5361C16.724 22.3928 16.7212 22.2323 16.6442 22.1076C16.5671 21.983 16.4402 21.8898 16.2975 21.854C16.3517 21.8755 16.4088 21.9099 16.4445 21.9557C16.4801 22.003 16.4873 22.0747 16.4487 22.1162C16.4102 22.1578 16.3389 22.1564 16.2918 22.1248C16.2448 22.0933 16.2177 22.0374 16.202 21.983C16.1863 21.9285 16.1806 21.8712 16.1635 21.8153C16.1164 21.662 15.9823 21.5387 15.8254 21.5072C15.7812 21.4986 15.7355 21.4957 15.6927 21.4857C15.6485 21.4757 15.6043 21.457 15.5758 21.4226C15.5472 21.3882 15.5387 21.3338 15.5644 21.2965C15.5957 21.2521 15.6614 21.2478 15.7156 21.2564C15.8083 21.2707 15.8981 21.3037 15.9909 21.3195C16.028 21.3252 16.065 21.3281 16.1035 21.3252C16.1649 21.3553 16.2291 21.3768 16.2975 21.3882C16.3945 21.404 16.4915 21.3997 16.59 21.404C16.687 21.4083 16.7882 21.4241 16.871 21.4771C16.9537 21.5287 17.015 21.6247 17.0022 21.7221C17.1263 21.5602 17.3046 21.4427 17.5014 21.3897C17.53 21.3825 17.5585 21.3753 17.5884 21.3696C17.6512 21.3825 17.7183 21.3782 17.7824 21.3696C17.908 21.3524 18.0306 21.3209 18.1476 21.275C18.2475 21.2363 18.3444 21.1862 18.4514 21.1733C18.5584 21.1604 18.6611 21.2034 18.7467 21.2693C18.8209 21.3266 18.9236 21.3338 19.0163 21.318C19.109 21.3023 19.1989 21.2693 19.2916 21.255C19.3458 21.2464 19.4114 21.2507 19.4428 21.2951C19.4685 21.3324 19.4599 21.3854 19.4314 21.4212C19.4028 21.4556 19.3586 21.4742 19.3144 21.4843C19.2702 21.4943 19.2245 21.4972 19.1818 21.5058C19.0248 21.5387 18.8908 21.6605 18.8437 21.8139C18.8266 21.8683 18.8209 21.9256 18.8052 21.9815C18.7895 22.036 18.7624 22.0919 18.7153 22.1234C18.6682 22.1549 18.5969 22.1564 18.5584 22.1148C18.5185 22.0718 18.527 22.0002 18.5627 21.9543C18.5984 21.907 18.6554 21.8741 18.7096 21.8526C18.5684 21.8884 18.4414 21.9815 18.363 22.1062C18.286 22.2309 18.2831 22.3914 18.3131 22.5347C18.3074 22.4544 18.3616 22.3756 18.4386 22.3513C18.4928 22.3341 18.5513 22.3441 18.6026 22.3642C18.6554 22.3842 18.7025 22.4143 18.7524 22.4415C18.9492 22.5476 19.176 22.5934 19.4 22.5906C19.6239 22.5877 19.8422 22.5318 20.0547 22.4587C19.681 22.5504 19.2887 22.4731 18.9179 22.3699C18.8751 22.3584 18.8294 22.3441 18.8009 22.3097C18.7724 22.2753 18.7767 22.2266 18.8038 22.1922C18.8523 22.1291 18.9421 22.1119 19.0206 22.1263C19.099 22.1406 19.1703 22.1793 19.2431 22.2122C19.6667 22.3971 20.1817 22.2868 20.5226 21.9715C20.7365 21.95 20.9491 21.9543 21.163 21.9758C20.9348 21.8225 20.6795 21.7121 20.4113 21.6519C20.36 21.6405 20.3072 21.6304 20.2644 21.6003C20.2216 21.5702 20.1902 21.5158 20.2059 21.4656C20.2273 21.3983 20.3129 21.3796 20.3828 21.3768C20.7209 21.3653 21.0618 21.4757 21.3299 21.682C21.1046 21.3295 20.7166 21.0644 20.3072 20.9813C20.1888 20.9569 20.0476 20.9325 19.9962 20.8222C19.9691 20.7649 19.9763 20.6947 20.0062 20.6388C20.0362 20.5829 20.0861 20.5399 20.1417 20.5098C20.2387 20.4568 20.3514 20.4424 20.4627 20.4295C20.8464 20.3837 21.2472 20.3479 21.6067 20.4897C21.969 20.633 22.0303 21.1174 22.0745 21.5072C22.1202 21.8955 22.0745 22.2896 22.0275 22.678C22.1658 22.4329 22.2357 22.1506 22.2272 21.8698C22.2728 22.185 22.2642 22.5032 22.21 22.8156C22.21 22.8184 22.21 22.8199 22.2072 22.8227C22.0175 23.3601 21.6694 23.717 21.1716 23.8846C21.3114 23.8001 21.4455 23.7069 21.5624 23.5937C21.7122 23.4475 21.8335 23.2655 21.8791 23.0606C21.6937 23.3659 21.3727 23.5693 21.0347 23.6811C20.6966 23.7929 20.3372 23.8216 19.982 23.8459C19.7737 23.8603 19.5626 23.8746 19.3544 23.8459C19.1846 23.823 19.0191 23.77 18.8551 23.7184C18.9706 23.8818 19.1547 23.9778 19.3344 24.0666C19.1218 24.0537 18.9164 24.0351 18.7196 24.0136C18.3758 23.4733 18.042 22.9216 17.8566 22.3097C17.9993 22.8543 18.1191 23.4031 18.2204 23.9563C17.9622 23.9276 17.7197 23.9032 17.5071 23.9032C17.2946 23.9032 17.0521 23.9262 16.7939 23.9563C16.8952 23.4031 17.0165 22.8528 17.1577 22.3097C16.9722 22.9216 16.6385 23.4733 16.2947 24.0136C16.0978 24.0351 15.8924 24.0537 15.6799 24.0666C15.8582 23.9778 16.0436 23.8818 16.1592 23.7184C15.9951 23.77 15.8311 23.8216 15.6599 23.8459C15.4531 23.8746 15.242 23.8603 15.0323 23.8459C14.8583 23.833 14.6828 23.8201 14.5088 23.7972C14.302 23.7141 14.0952 23.6324 13.8883 23.5493C14.1037 23.5923 14.3277 23.5822 14.5388 23.5206C14.1551 23.5221 13.7728 23.3659 13.5018 23.0936C13.2293 22.8227 13.0696 22.4401 13.0681 22.0546C13.0995 22.1822 13.1651 22.3011 13.2564 22.3957C13.1965 21.8038 13.5745 21.1934 14.1294 20.9856H14.1223ZM16.8339 19.8463C16.8453 19.6442 17.0193 19.4823 17.2104 19.4207C17.4016 19.359 17.6084 19.3777 17.8095 19.3963L18.4329 19.4551C18.567 19.468 18.7039 19.4809 18.8266 19.5353C18.9507 19.5898 19.0605 19.6915 19.089 19.8248C19.1161 19.9509 19.0619 20.0813 18.9764 20.1773C18.1476 20.5456 17.5114 20.5513 17.5014 20.5513H17.4986C17.4986 20.5513 17.4815 20.5513 17.4529 20.5513C17.53 20.5213 17.6041 20.4826 17.674 20.4367C17.3132 20.5155 16.9152 20.3908 16.6641 20.1186C16.8182 20.2045 17.005 20.2289 17.1762 20.1859C17.0036 20.2131 16.8253 20.0326 16.8353 19.8477L16.8339 19.8463ZM10.9627 23.4791C10.9956 23.3573 11.0355 23.2383 11.0583 23.1151C11.1011 22.8915 11.0868 22.6579 11.1553 22.4415C11.1796 22.3656 11.2209 22.2896 11.2737 22.2223C11.3365 23.4346 11.5347 24.508 11.7116 25.2603C11.3179 24.6585 11.0926 24.0222 10.9613 23.4791H10.9627ZM15.3333 29.8948L15.3133 29.8805C12.8214 28.264 12.5118 26.285 12.509 26.2663L12.4961 26.1761L12.4776 26.1589C12.3578 25.7805 11.7273 23.6625 11.7587 21.2507C11.8329 21.0615 11.9413 20.8852 12.0768 20.7348C12.0468 22.2767 12.1795 23.6869 12.4776 24.9422C12.7757 26.2004 13.2393 27.3067 13.8541 28.2282C14.4646 29.1439 15.1008 29.6942 15.5401 30.0009C15.4289 29.965 15.349 29.9077 15.3319 29.8948H15.3333ZM18.7952 29.4893C18.7952 29.4893 17.5428 30.3419 16.309 29.4893C16.309 29.4893 16.8382 29.687 17.1534 29.6684C17.1534 29.6684 15.9623 29.3288 15.0765 27.9444C14.1922 26.5601 14.9139 25.3449 14.9139 25.3449C14.9139 25.3449 14.6201 25.5728 14.4304 26.3824C14.4304 26.3824 14.1907 24.4464 16.5215 24.8261C16.5215 24.8261 16.6955 24.5395 17.2318 24.4206C17.326 24.4134 17.4159 24.4091 17.4986 24.4091C17.6569 24.4091 17.8366 24.4234 18.0363 24.4449C18.2517 24.5467 18.44 24.7387 18.5884 24.9264C19.2032 24.7745 19.8679 24.8362 20.4441 25.0998C20.4327 25.0081 20.3814 24.9207 20.3086 24.8648C20.4784 24.786 20.651 24.7058 20.835 24.6757C21.0204 24.6456 21.2215 24.6742 21.367 24.7917C21.5639 24.9508 21.6138 25.2417 21.5525 25.4882C21.4925 25.7347 21.3413 25.9482 21.193 26.1531C21.2244 26.9513 20.8749 27.7438 20.2758 28.2683C20.4684 28.0462 20.5426 27.7395 20.4983 27.4486C20.2459 28.3271 19.6111 29.088 18.7923 29.4893H18.7952ZM22.521 26.1603L22.5039 26.1761L22.491 26.2649C22.4882 26.285 22.1801 28.264 19.6867 29.8805L19.6667 29.8948C19.6667 29.8948 19.5769 29.965 19.4571 30.0023C19.8964 29.6956 20.5326 29.1453 21.1445 28.2282C21.7593 27.3067 22.2214 26.2004 22.521 24.9422C22.8591 23.5178 22.986 21.8912 22.9004 20.0999C23.0017 20.153 23.0987 20.2074 23.1886 20.2647C23.451 23.0635 22.6551 25.7333 22.521 26.1603ZM23.2884 25.2618C23.5366 24.2042 23.8276 22.5175 23.7277 20.6989C24.0116 21.0028 24.1714 21.3438 24.2099 21.7336L24.2027 21.7307L24.2141 22.1048C24.2141 22.1248 24.2498 23.7972 23.2884 25.2618ZM24.6692 20.1085C24.0287 19.6227 23.4639 19.4995 23.4639 19.4995C23.9931 19.723 24.3325 20.1286 24.5023 20.3765C24.4937 20.3822 24.4837 20.388 24.4738 20.3923C23.9146 19.7589 23.1272 19.5009 23.1272 19.5009C23.5052 19.6729 23.8333 20.0326 24.0416 20.3034C22.3127 18.5551 17.8138 18.7127 17.4986 18.7256C17.2832 18.717 15.1493 18.6411 13.2564 19.1369C13.2051 19.1011 13.1623 19.0552 13.1266 19.0037C13.7485 18.7987 15.0223 18.4519 16.6085 18.429C16.6085 18.429 14.8569 18.3487 13.5717 18.6153C13.5717 18.6153 15.1949 18.1983 17.2304 18.2613C17.2304 18.2613 16.5657 18.1882 15.7527 18.1453C18.2446 17.9575 21.7964 18.0951 24.4823 19.8391C24.5508 19.9122 24.6135 19.981 24.6677 20.0412C24.6677 20.0641 24.6677 20.0885 24.6677 20.1114L24.6692 20.1085ZM25.0129 17.3671L25.8331 18.1567L24.3554 15.9283L25.8674 17.8013L24.3554 15.4382L25.8845 17.2611L24.4909 15.1688C24.4909 15.1688 25.6919 16.6578 26.2853 17.3958C26.4465 17.7469 26.6005 18.2384 26.6433 18.8489L26.6904 19.65L25.0144 17.3671H25.0129Z" fill="#181B10"/>
<path d="M17.1748 20.1828C17.192 20.18 17.2078 20.1757 17.2236 20.1699C17.2078 20.1757 17.1906 20.1785 17.1748 20.1828Z" fill="black"/>
<path d="M20.0875 16.6304C20.1346 16.6361 20.1831 16.639 20.2344 16.6375C20.2344 16.6375 20.1802 16.6361 20.0875 16.6304Z" fill="black"/>
<path d="M27.3922 0.845703H26.1669H22.521V1.11942L22.2471 0.845703H19.7466L18.8708 1.72703L17.9949 0.845703H15.4845L14.6072 1.72846L13.7228 0.845703H10.9499H9.72459H8.1427V1.96778L7.92161 0.845703H5.3184L3.70227 9.03558H6.5551L6.6093 8.76904L6.65638 9.03558H8.1427H9.53773H9.72459H10.9499H15.3347L15.2762 8.82636L15.4845 9.03558H17.9949L18.8708 8.15569L19.7466 9.03558H22.2471L22.521 8.7633V9.03558H25.3281V6.35148H26.3523V3.66595H27.3323V9.03558H30.1394V3.66595H31.2977V0.845703H27.3922Z" fill="#181B10"/>
<path d="M7.30715 8.25292L7.22441 7.79291H6.00911L5.91782 8.25292H4.65259L5.95918 1.62793H7.2829L8.58949 8.25292H7.30715ZM6.97479 6.54616L6.61676 4.73048L6.25873 6.54616H6.97479Z" fill="white"/>
<path d="M8.9231 1.62793H10.1726V8.25292H8.9231V1.62793Z" fill="white"/>
<path d="M13.5261 5.43411L14.3092 8.25292H13.0111L12.2708 5.56738H11.7545V8.25292H10.5063V1.62793H13.4034L14.4447 2.66546V4.52269L13.5289 5.43411H13.5261ZM13.1937 3.94517V3.23438L12.8271 2.88328H11.753V4.31346H12.8271L13.1937 3.94517Z" fill="white"/>
<path d="M18.7054 7.21539L17.6726 8.25292H15.8083L14.7756 7.21539V6.1621H16.0237V6.6393L16.3817 6.999H17.0978L17.4644 6.6393V5.92851L17.0978 5.56882H15.8155L14.7742 4.52269V2.66546L15.8069 1.62793H17.6712L18.7039 2.66546V3.71158H17.463V3.23438L17.0964 2.88328H16.3803L16.0223 3.24298V3.94517L16.3803 4.31346H17.6712L18.7039 5.35099V7.21682L18.7054 7.21539Z" fill="white"/>
<path d="M21.9263 8.25292H20.0691L19.0364 7.21539V2.66546L20.0691 1.62793H21.9263L22.9676 2.66546V7.21539L21.9263 8.25292ZM21.718 6.6393V3.23581L21.36 2.88471H20.6439L20.2774 3.24441V6.64074L20.6439 7.00043H21.36L21.718 6.64074V6.6393Z" fill="white"/>
<path d="M26.6134 2.88328H24.5494V4.31346H25.5735V5.56882H24.5494V8.25435H23.3013V1.62793H26.6148V2.88185L26.6134 2.88328Z" fill="white"/>
<path d="M30.5176 2.88331H29.3608V8.25295H28.1126V2.88331H26.9473V1.62939H30.519V2.88331H30.5176Z" fill="white"/>
<path d="M4.65088 8.25284L5.30988 7.63806L5.46822 7.19238H7.76474L7.22413 7.79283H6.00883L5.91754 8.25284H4.65088Z" fill="#BCBEC0"/>
<path d="M6.2585 6.54634L5.46826 7.19264L6.4368 2.27441L6.61653 4.7321L6.2585 6.54634Z" fill="#BCBEC0"/>
<path d="M7.30688 8.25292L7.84892 7.59228L6.7948 2.27423L7.28263 1.62793L8.58923 8.25292H7.30688Z" fill="#BCBEC0"/>
<path d="M8.92297 8.25292L9.54632 7.61521V2.27423L10.1711 1.62793V8.25292H8.92297Z" fill="#BCBEC0"/>
<path d="M10.5049 8.2527L11.1325 7.61499V4.94092H12.9184L12.2694 5.56716H11.753V8.2527H10.5049Z" fill="#BCBEC0"/>
<path d="M11.7531 4.31358L11.1326 4.94126V2.27148H13.3007L12.8271 2.8834H11.7531V4.31358Z" fill="#BCBEC0"/>
<path d="M13.0097 8.25299L13.5403 7.61528L12.8571 5.43705L13.8042 4.43964V3.02809L14.4418 2.66553V4.52276L13.526 5.43418L14.3091 8.25299H13.0097Z" fill="#BCBEC0"/>
<path d="M15.3918 6.16211H16.0237V6.63931L15.3918 7.02767V6.16211Z" fill="#BCBEC0"/>
<path d="M15.8069 8.253L16.1022 7.61529H17.3774L18.0792 6.9174V5.68927L18.7054 5.35107V7.21547L17.6726 8.253H15.8069Z" fill="#BCBEC0"/>
<path d="M16.0237 3.94529L15.3918 4.35514V2.95218L16.1407 2.27148H17.5529L17.0978 2.8834H16.3818L16.0237 3.24309V3.94529Z" fill="#BCBEC0"/>
<path d="M17.4644 3.71165L18.0791 3.21295V2.92061L18.7053 2.66553V3.71165H17.4644Z" fill="#BCBEC0"/>
<path d="M15.8154 5.56716L16.2091 4.94092H17.4743L17.0978 5.56716H15.8154Z" fill="#BCBEC0"/>
<path d="M20.0704 8.25299L20.5825 7.61528H21.6894L22.3541 6.91739V2.99083L22.9675 2.66553V7.21546L21.9262 8.25299H20.0704Z" fill="#BCBEC0"/>
<path d="M20.2787 6.63942L19.6525 7.03924V3.00521L20.4227 2.27148H21.7821L21.3599 2.8834H20.6438L20.2787 3.24309V6.63942Z" fill="#BCBEC0"/>
<path d="M23.2998 8.25293L23.9046 7.61522V4.94115H24.9573L25.5735 4.31348V5.5674H24.5493V8.25293H23.2998Z" fill="#BCBEC0"/>
<path d="M24.5494 4.31347L23.9047 4.94114V2.27137H26.0115L26.6134 1.62793V2.88328H24.5494V4.31347Z" fill="#BCBEC0"/>
<path d="M28.1125 8.25292L28.7316 7.61521V2.27137H29.8699L30.5175 1.62793V2.88328H29.3607V8.25292H28.1125Z" fill="#BCBEC0"/>
</svg>
