<svg width="24" height="24" viewBox="0 0 24 24" fill="none" xmlns="http://www.w3.org/2000/svg">
<path d="M2.46948 8.78073L6.96948 13.2807C7.07437 13.3857 7.20806 13.4573 7.35362 13.4862C7.49919 13.5152 7.65008 13.5004 7.78719 13.4436C7.92431 13.3868 8.04149 13.2905 8.12389 13.1671C8.2063 13.0436 8.25022 12.8985 8.2501 12.7501L2.46948 8.78073ZM2.46948 8.78073C2.39974 8.71107 2.34442 8.62836 2.30668 8.53731C2.26894 8.44626 2.24951 8.34866 2.24951 8.2501C2.24951 8.15154 2.26894 8.05395 2.30668 7.9629C2.34442 7.87185 2.39974 7.78913 2.46948 7.71948M2.46948 8.78073V7.71948M2.46948 7.71948L6.96948 3.21948M2.46948 7.71948L6.96948 3.21948M6.96948 3.21948C7.07437 3.11447 7.20806 3.04294 7.35362 3.01396M6.96948 3.21948L7.35362 3.01396M7.35362 3.01396C7.49919 2.98497 7.65008 2.99982 7.78719 3.05664M7.35362 3.01396L7.78719 3.05664M7.78719 3.05664C7.92431 3.11345 8.04149 3.20967 8.12389 3.33312M7.78719 3.05664L8.12389 3.33312M8.12389 3.33312C8.2063 3.45656 8.25022 3.60168 8.2501 3.7501L8.12389 3.33312ZM8.2501 8.9376H8.1876V9.0001V12.7501V12.7502C8.18771 12.8862 8.14745 13.0192 8.07191 13.1324C7.99637 13.2455 7.88896 13.3337 7.76327 13.3858C7.63758 13.4379 7.49926 13.4515 7.36583 13.425C7.2324 13.3984 7.10985 13.3328 7.0137 13.2366L7.01367 13.2365L2.51367 8.73653L2.51365 8.73651C2.44972 8.67266 2.39902 8.59684 2.36442 8.51337C2.32982 8.42991 2.31201 8.34045 2.31201 8.2501C2.31201 8.15975 2.32982 8.07029 2.36442 7.98683C2.39902 7.90337 2.44972 7.82755 2.51365 7.7637L2.51367 7.76367L7.01367 3.26367L7.0137 3.26365C7.10985 3.16739 7.2324 3.10182 7.36583 3.07525C7.49926 3.04868 7.63758 3.0623 7.76327 3.11438C7.88896 3.16645 7.99637 3.25466 8.07191 3.36782C8.14745 3.48097 8.18771 3.614 8.1876 3.75005V3.7501V7.5001V7.5626H8.2501H15.75C17.3242 7.56432 18.8335 8.19044 19.9466 9.30357C21.0598 10.4167 21.6859 11.9259 21.6876 13.5001C21.6859 15.0743 21.0598 16.5835 19.9466 17.6966C18.8335 18.8098 17.3242 19.4359 15.75 19.4376H7.5001C7.31777 19.4376 7.1429 19.3652 7.01397 19.2362C6.88504 19.1073 6.8126 18.9324 6.8126 18.7501C6.8126 18.5678 6.88504 18.3929 7.01397 18.264C7.1429 18.135 7.31777 18.0626 7.5001 18.0626H15.7501C16.9602 18.0626 18.1206 17.5819 18.9763 16.7263C19.8319 15.8706 20.3126 14.7102 20.3126 13.5001C20.3126 12.2901 19.8319 11.1296 18.9763 10.2739C18.1206 9.41829 16.9602 8.9376 15.7501 8.9376H8.2501Z" fill="white" stroke="white" stroke-width="0.125"/>
</svg>
